{"title":"FakeTaxi.Candi.2014.xXx-ViORiX","uid":10685199,"size":398731795,"categoryP":"porn","categoryS":"movie_clips","magnet":"?xt=urn:btih:e97a544c4f3a596d444f20d3122bfad82926e0d0&amp;dn=FakeTaxi.Candi.2014.xXx-ViORiX&amp;tr=udp%3A%2F%2Ftracker.openbittorrent.com%3A80&amp;tr=udp%3A%2F%2Fopen.demonii.com%3A1337&amp;tr=udp%3A%2F%2Ftracker.coppersurfer.tk%3A6969&amp;tr=udp%3A%2F%2Fexodus.desync.com%3A6969","seeders":0,"leechers":0,"uploader":"iH2OSO4","files":-1,"time":1407073164,"description":"There is no such thing as a free ride, and these fake taxi drivers decided to capitalize. Join their intrepid, dangerous, provocative adventurers as they drive around looking to get sex for fares that they aren't even licensed to give\n\nGeneral\nComplete name       : FakeTaxi.Candi.2014.xXx-ViORiX.mp4\n\nSource :     &lt;a href=&quot; http://vasileturcu.ro/i/9853875.html&quot; rel=&quot;nofollow&quot; target=&quot;_NEW&quot;&gt; http://vasileturcu.ro/i/9853875.html&lt;/a&gt;\n\n\nFormat                           : MPEG-4\nFormat profile                   : Base Media\nCodec ID                         : isom\nFile size                        : 380 MiB\nDuration                         : 28mn 8s\nOverall bit rate                 : 1 889 Kbps\nEncoded date                     : UTC 2014-08-02 06:15:21\nTagged date                      : UTC 2014-08-02 06:15:21\n\nVideo\nID                               : 1\nFormat                           : MPEG-4 Visual\nFormat profile                   : Simple@L1\nFormat settings, BVOP            : No\nFormat settings, QPel            : No\nFormat settings, GMC             : No warppoints\nFormat settings, Matrix          : Default (H.263)\nCodec ID                         : 20\nDuration                         : 28mn 8s\nBit rate mode                    : Variable\nBit rate                         : 1 761 Kbps\nMaximum bit rate                 : 5 973 Kbps\nWidth                            : 728 pixels\nHeight                           : 408 pixels\nDisplay aspect ratio             : 16:9\nFrame rate mode                  : Constant\nFrame rate                       : 25.000 fps\nColor space                      : YUV\nChroma subsampling               : 4:2:0\nBit depth                        : 8 bits\nScan type                        : Progressive\nCompression mode                 : Lossy\nBits/(Pixel*Frame)               : 0.237\nStream size                      : 354 MiB (93%)\nWriting library                  : Lavc53.8.0\nEncoded date                     : UTC 2014-08-02 06:15:21\nTagged date                      : UTC 2014-08-02 06:15:45\n\nAudio\nID                               : 2\nFormat                           : AAC\nFormat/Info                      : Advanced Audio Codec\nFormat profile                   : LC\nCodec ID                         : 40\nDuration                         : 28mn 8s\nBit rate mode                    : Variable\nBit rate                         : 126 Kbps\nMaximum bit rate                 : 162 Kbps\nChannel(s)                       : 2 channels\nChannel positions                : Front: L R\nSampling rate                    : 44.1 KHz\nCompression mode                 : Lossy\nStream size                      : 25.3 MiB (7%)\nEncoded date                     : UTC 2014-08-02 06:15:37\nTagged date                      : UTC 2014-08-02 06:15:45\n","torrent":{"xt":"urn:btih:e97a544c4f3a596d444f20d3122bfad82926e0d0","amp;dn":"FakeTaxi.Candi.2014.xXx-ViORiX","amp;tr":["udp%3A%2F%2Ftracker.openbittorrent.com%3A80","udp%3A%2F%2Fopen.demonii.com%3A1337","udp%3A%2F%2Ftracker.coppersurfer.tk%3A6969","udp%3A%2F%2Fexodus.desync.com%3A6969"],"infoHash":"e97a544c4f3a596d444f20d3122bfad82926e0d0","infoHashBuffer":{"type":"Buffer","data":[233,122,84,76,79,58,89,109,68,79,32,211,18,43,250,216,41,38,224,208]},"announce":[],"urlList":[]}}